<?xml version="1.0" encoding="UTF-8" standalone="no"?>
<svg width="16px" height="31px" viewBox="0 0 16 31" version="1.1" xmlns="http://www.w3.org/2000/svg" xmlns:xlink="http://www.w3.org/1999/xlink">
    <!-- Generator: Sketch 50.2 (55047) - http://www.bohemiancoding.com/sketch -->
    <title>Group</title>
    <desc>Created with Sketch.</desc>
    <defs></defs>
    <g id="Page-1" stroke="none" stroke-width="1" fill="none" fill-rule="evenodd">
        <g id="Group" fill-rule="nonzero">
            <path d="M10,22.338 L13.646,22.338 L13.646,15.044 C13.646,14.5408686 13.2381314,14.133 12.735,14.133 C12.2318686,14.133 11.824,14.5408686 11.824,15.044 L11.824,20.515 L10,20.515 C9.5163371,20.5147347 9.05239297,20.7066831 8.71029784,21.0485907 C8.36820271,21.3904982 8.17599993,21.854337 8.176,22.338 L8.176,29.633 C8.176,30.1366837 8.58431631,30.545 9.088,30.545 C9.59168369,30.545 10,30.1366837 10,29.633 L10,22.338 Z" id="Shape" fill="#E0EEFA"></path>
            <circle id="Oval" fill="#E0EEFA" cx="7.721" cy="5.47" r="4.559"></circle>
            <path d="M7.721,10.713 C4.825,10.713 2.479,8.366 2.479,5.47 C2.47955226,2.57505358 4.82672009,0.228631887 7.72166654,0.229000042 C10.616613,0.229368198 12.9631839,2.5763868 12.9629999,5.47133327 C12.9628158,8.36627974 10.6159465,10.7129999 7.721,10.713 Z M7.721,9.346 C9.10522554,9.34617865 10.384398,8.60786819 11.0766655,7.40918303 C11.768933,6.21049787 11.7691236,4.73354679 11.0771655,3.534683 C10.3852074,2.3358192 9.10622554,1.59717861 7.722,1.597 C5.58217276,1.59672389 3.8472762,3.33117276 3.84700006,5.471 C3.84672392,7.61082724 5.58117276,9.34572383 7.721,9.346 Z M13.646,18.008 C13.6465306,16.8592661 13.1905697,15.7573998 12.3784797,14.9449347 C11.5663897,14.1324695 10.464734,13.6759999 9.316,13.676 L6.581,13.676 C5.4321741,13.676 4.33041573,14.1324377 3.51816692,14.9448741 C2.70591812,15.7573104 2.24973474,16.8591741 2.25,18.008 L2.25,22.338 L5.896,22.338 L5.896,29.633 L10,29.633 L10,22.338 L13.646,22.338 L13.646,18.008 Z M11.367,23.706 L11.367,30.088 C11.3672654,30.3297854 11.2714025,30.5617588 11.1005281,30.7328208 C10.9296537,30.9038828 10.6977856,31.0000001 10.456,31 L5.441,31 C4.93731631,31 4.529,30.5916837 4.529,30.088 L4.529,23.706 L1.794,23.706 C1.55221442,23.7060001 1.32034633,23.6098828 1.14947191,23.4388208 C0.978597495,23.2677588 0.882734593,23.0357854 0.883,22.794 L0.883,18.008 C0.882999952,14.8609197 3.43391974,12.3095522 6.581,12.309 L9.316,12.309 C12.4628515,12.3101041 15.0134481,14.8611483 15.014,18.008 L15.014,22.794 C15.0142654,23.0357854 14.9184025,23.2677588 14.7475281,23.4388208 C14.5766537,23.6098828 14.3447856,23.7060001 14.103,23.706 L11.367,23.706 Z" id="Shape" fill="#2D9BF3"></path>
        </g>
    </g>
</svg>